<?xml version="1.0" encoding="UTF-8"?>
<svg width="593.77" height="782.73" enable-background="new 0 0 2800 1192" version="1.1" viewBox="0 0 593.76758 782.73047" xml:space="preserve" xmlns="http://www.w3.org/2000/svg" xmlns:xlink="http://www.w3.org/1999/xlink"><defs><linearGradient id="linearGradient1378"><stop offset="0"/><stop stop-opacity="0" offset="1"/></linearGradient><linearGradient id="linearGradient1432"><stop stop-color="#6bbf47" offset="0"/><stop stop-color="#3e863d" offset="1"/></linearGradient><linearGradient id="linearGradient1085" x1="968.97" x2="1194" y1="790" y2="1191" gradientUnits="userSpaceOnUse" xlink:href="#linearGradient1432"/><linearGradient id="linearGradient1105" x1="751.04" x2="1051" y1="849.05" y2="849.05" gradientUnits="userSpaceOnUse" xlink:href="#linearGradient1432"/><linearGradient id="linearGradient1380" x1="1148.1" x2="1137.3" y1="1000.2" y2="1010.7" gradientUnits="userSpaceOnUse" xlink:href="#linearGradient1378"/><linearGradient id="linearGradient1511" x1="883.92" x2="883.92" y1="812.77" y2="315.63" gradientUnits="userSpaceOnUse"><stop stop-color="#f7df1e" offset="0"/><stop stop-color="#000080" offset="1"/></linearGradient><linearGradient id="linearGradient1577" x1="743.66" x2="777.49" y1="967.44" y2="1012.8" gradientUnits="userSpaceOnUse"><stop offset="0"/><stop stop-opacity="0" offset="1"/></linearGradient><linearGradient id="linearGradient1585" x1="1003.1" x2="981.5" y1="961.94" y2="1000.8" gradientTransform="translate(9.5,1)" gradientUnits="userSpaceOnUse"><stop offset="0"/><stop stop-opacity="0" offset="1"/></linearGradient><radialGradient id="radialGradient1611" cx="874.82" cy="1020.2" r="66.18" gradientTransform="matrix(1.8808 0 0 .75823 -770.56 246.65)" gradientUnits="userSpaceOnUse"><stop stop-color="#ff0" offset="0"/><stop stop-color="#ff0" stop-opacity="0" offset="1"/></radialGradient></defs><g transform="translate(-600.23 -408.27)"><g><rect x="600.23" y="408.27" width="593.77" height="470.73" fill="url(#linearGradient1511)"/><path d="m991.04 805-240.02 55.492-150.78-17.188v347.7h593.77v-328.73z" fill="url(#linearGradient1085)"/><polygon points="991.09 804.16 751.04 859.84 1051 893.94" fill="url(#linearGradient1105)"/></g><g transform="translate(-91.646 14.001)"><polygon points="878.13 858.85 881.05 860.58 883.92 858.77 881.89 801 881.05 801 880.12 801" fill="#534741"/><g fill="#3f873d"><polygon points="893.48 765.63 906.54 763.04 891.3 777.45 880.97 801.43 881.12 786.35 882.7 777.93"/><polygon points="868.54 765.63 855.47 763.04 870.71 777.45 881.04 801.43 881.12 786.76 879.32 777.93"/><polygon points="822.12 782.91 855.47 786.43 880.97 801.43 871.45 784 851.63 777.4"/><polygon points="939.97 782.91 906.62 786.43 881.12 801.43 890.64 784 910.47 777.4"/><polygon points="839.1 805.17 849.39 803.36 868.92 801 881.05 801 866.81 794.71 845.18 798.07"/><polygon points="923.05 805.17 912.76 803.36 893.23 801 881.1 801 895.34 794.71 916.97 798.07"/></g><path d="m845.01 769.76-16.281 4.2285 26.121 4.8184 15.213 7.7891 10.91 14.836-4.457-19.016-13.621-9.7676zm35.963 31.672-15.482-2.0781-12.395 2.9453-7.582 8.7285-1.6777 12.121 7.8359-9.5469 13.678-8.6914zl-15.268-14.066-15.279-1.3887-21.877 6.252 19.793 4.3398 15.67-0.38868zm36.037-31.672-17.885 2.8887-13.619 9.7676-4.457 19.016 10.908-14.836 15.213-7.7891 26.121-4.8184zm-35.961 31.672 16.959-5.252 15.67 0.38868 19.795-4.3398-21.879-6.252-15.279 1.3887zl15.623 3.4785 13.678 8.6914 7.8359 9.5469-1.6797-12.121-7.582-8.7285-12.396-2.9453z" fill="#61b245"/><path d="m956.16 921.1-19.747 5.855-4.693-0.388 34.115 3.256-25.618 4.787 21.981 3.573-14.84 3.96-18.87-2.706-10.37-5.597 0.907 1.102 20.153 13.497-13.947-2.428-14.976-11.522-4.446-7.884-0.145-0.387 1.214 8.271-6.589 11.522-12.179 2.428 10.328-13.497 0.105-1.092-6.285 5.588-16.9 2.706-17.723-3.96 19.412-3.579-29.067-4.781 32.154-3.298l-4.889 0.43-24.009-5.855 18.315-4.066 7.841 0.181-11.522-1.591-8.496-6.645 10.908 1.694 3.24 0.352-9.73-7.534-5.81-11.352 11.091 8.941 16.641 8.14 15.868 3.076-21.447-53.446 2.302-1.768 3.489 1.691 17.471 53.525 13.639-3.079 10.715-8.14 4.582-8.941 2.453 11.352-4.254 7.55 3.119-0.368 9.675-1.694-3.659 6.645-10.341 1.587 7.561-0.177zm-59.192-10.095h1.814l0.723 0.785-0.181-0.61zm4.317 0.782 0.348-0.782h1.814l-2.332 0.174z" opacity=".2"/></g><g transform="translate(-2.0553 -4.603)"><g opacity=".2"><polygon points="691.88 1006.7 676.13 992.85 667.16 975.33 665.7 957.03 673.82 951.53 688.74 940.25 711.94 951.53 724.15 957.03 736.01 975.33 739.77 992.85 731.69 1000.1 730.8 1010.5 718.08 1020.9 695.46 1003.8"/><polygon points="681.92 913.58 697.53 962 696.69 962 695.76 962 676.11 913.55 678.51 912.16"/><polygon points="704.99 960.27 704.07 957.74 693.41 950.44 695.08 955.02"/></g><polygon points="657.47 819.79 646.78 833.66 644.17 851.17 649.37 869.47 659.5 874.97 678.52 886.26 697.62 874.97 707.83 869.47 713.03 851.17 710.41 833.66 699.7 826.42 695.02 816.03 678.52 805.63 662.11 822.67" fill="#418a3e"/><polygon points="681.39 913.23 679.35 865 678.51 865 677.58 865 675.6 913.2 678.51 914.47" fill="#534741"/><polygon points="687 866.24 687 868.76 679 876.07 679 871.48" fill="#534741"/></g><g transform="translate(100.03 39.26)"><path d="m743.66 967.44 58.336 23.335 21.974 59.884-58.336-23.335z" fill="url(#linearGradient1577)" opacity=".23"/><path d="m954.25 986.27 21.974 59.884 58.336-23.334-21.974-59.884z" fill="url(#linearGradient1585)" opacity=".23"/><g transform="translate(2,-17)"><ellipse cx="874.82" cy="1020.2" rx="124.47" ry="50.18" fill="url(#radialGradient1611)" opacity=".32"/><g transform="matrix(3.8937 0 0 3.8937 715.19 739.17)"><path d="m45.707 69.521-8.3652 2.707 0.39453 1.2168 8.3652-2.707z" color="#000000" color-rendering="auto" dominant-baseline="auto" enable-background="accumulate" image-rendering="auto" shape-rendering="auto" solid-color="#000000" style="font-feature-settings:normal;font-variant-alternates:normal;font-variant-caps:normal;font-variant-ligatures:normal;font-variant-numeric:normal;font-variant-position:normal;isolation:auto;mix-blend-mode:normal;shape-padding:0;text-decoration-color:#000000;text-decoration-line:none;text-decoration-style:solid;text-indent:0;text-orientation:mixed;text-transform:none;white-space:normal"/><path d="m45.904 72.837-8.3647-2.706" fill="none" stroke="#000" stroke-width="1.2792"/><g transform="matrix(1.7573 0 0 1.7573 -32.532 -53.868)"><path d="m42.332 67.118 1.2236 1.8824v1.7569l-0.5961 0.72159h-1.2863l-0.65884-0.69022v-1.1922l0.9412-0.9412z" fill="#f00"/><path d="m41.934 67.954-0.92132 1.4174v1.3229l0.44885 0.54334h0.96856l0.49609-0.51972v-0.89769l-0.7087-0.7087z" fill="#ff0"/><path d="m42.217 69.111-0.65971 1.0149v0.94727l0.3214 0.38906h0.69354l0.35523-0.37214v-0.64279l-0.50747-0.50747z" fill="#f60"/></g></g></g><g transform="translate(-203.46 -34.608)"><path d="m1130.6 1007.3 27.094 13.544-12.022-50.558z" fill="url(#linearGradient1380)"/><g transform="translate(-3.182 -8.8388)"><path d="m1148.9 979.16 1.3379 45.217 10.684 5.3418zl-15.072 37.014 9.8398 4.92z" fill="#f9e756"/><path d="m1160.9 1029.7 58.336-23.334-12.021-50.558-58.336 23.335z" fill="#f7df1e"/></g></g><g transform="matrix(-1 0 0 1 1959.7 -30.108)"><path d="m1130.6 1007.3 27.094 13.544-12.022-50.558z" fill="url(#linearGradient1380)"/><g transform="translate(-3.182 -8.8388)"><path d="m1148.9 979.16 1.3379 45.217 10.684 5.3418zl-15.072 37.014 9.8398 4.92z" fill="#f9e756"/><path d="m1160.9 1029.7 58.336-23.334-12.021-50.558-58.336 23.335z" fill="#fc0"/></g></g></g></g></svg>
